<svg width="626" height="180" viewBox="0 0 626 180" fill="none" xmlns="http://www.w3.org/2000/svg">
<path d="M229.4 55.3C237 55.3 243.567 56.7333 249.1 59.6C254.7 62.4 258.967 66.4333 261.9 71.7C264.9 76.9667 266.4 83.1667 266.4 90.3C266.4 97.4333 264.9 103.633 261.9 108.9C258.967 114.1 254.7 118.1 249.1 120.9C243.567 123.633 237 125 229.4 125H207.7V55.3H229.4ZM229.4 117.5C238.4 117.5 245.267 115.133 250 110.4C254.733 105.6 257.1 98.9 257.1 90.3C257.1 81.6333 254.7 74.8667 249.9 70C245.167 65.1333 238.333 62.7 229.4 62.7H216.8V117.5H229.4ZM310.003 125.7C303.536 125.7 297.636 124.2 292.303 121.2C286.97 118.133 282.736 113.9 279.603 108.5C276.536 103.033 275.003 96.9 275.003 90.1C275.003 83.3 276.536 77.2 279.603 71.8C282.736 66.3333 286.97 62.1 292.303 59.1C297.636 56.0333 303.536 54.5 310.003 54.5C316.536 54.5 322.47 56.0333 327.803 59.1C333.136 62.1 337.336 66.3 340.403 71.7C343.47 77.1 345.003 83.2333 345.003 90.1C345.003 96.9667 343.47 103.1 340.403 108.5C337.336 113.9 333.136 118.133 327.803 121.2C322.47 124.2 316.536 125.7 310.003 125.7ZM310.003 117.8C314.87 117.8 319.236 116.667 323.103 114.4C327.036 112.133 330.103 108.9 332.303 104.7C334.57 100.5 335.703 95.6333 335.703 90.1C335.703 84.5 334.57 79.6333 332.303 75.5C330.103 71.3 327.07 68.0667 323.203 65.8C319.336 63.5333 314.936 62.4 310.003 62.4C305.07 62.4 300.67 63.5333 296.803 65.8C292.936 68.0667 289.87 71.3 287.603 75.5C285.403 79.6333 284.303 84.5 284.303 90.1C284.303 95.6333 285.403 100.5 287.603 104.7C289.87 108.9 292.936 112.133 296.803 114.4C300.736 116.667 305.136 117.8 310.003 117.8ZM410.616 78C410.616 82.2667 409.616 86.1667 407.616 89.7C405.683 93.1667 402.716 95.9667 398.716 98.1C394.783 100.167 389.95 101.2 384.216 101.2H374.516V125H354.916V54.5H384.216C389.883 54.5 394.683 55.5 398.616 57.5C402.616 59.5 405.616 62.2667 407.616 65.8C409.616 69.3333 410.616 73.4 410.616 78ZM382.316 85.6C387.85 85.6 390.616 83.0667 390.616 78C390.616 72.8667 387.85 70.3 382.316 70.3H374.516V85.6H382.316ZM438.091 110H459.991V125H418.491V54.5H438.091V110ZM512.212 113.5H487.212L483.412 125H462.812L488.512 54.5H511.112L536.712 125H516.012L512.212 113.5ZM507.312 98.5L499.712 75.7L492.212 98.5H507.312ZM607.2 54.5L582.4 102.6V125H562.7V102.6L537.9 54.5H560.3L572.7 81.7L585.1 54.5H607.2Z" fill="white"/>
<path fill-rule="evenodd" clip-rule="evenodd" d="M180 90C180 139.706 139.706 180 90 180C40.2944 180 0 139.706 0 90C0 40.2944 40.2944 0 90 0C139.706 0 180 40.2944 180 90ZM38.4545 61.3636C38.4545 56.8449 42.1177 53.1818 46.6364 53.1818C51.1551 53.1818 54.8182 56.8449 54.8182 61.3636V118.636C54.8182 123.155 51.1551 126.818 46.6364 126.818C42.1177 126.818 38.4545 123.155 38.4545 118.636V61.3636ZM75.2727 36.8182C70.754 36.8182 67.0909 40.4813 67.0909 45V135C67.0909 139.519 70.754 143.182 75.2727 143.182C79.7914 143.182 83.4545 139.519 83.4545 135V45C83.4545 40.4813 79.7914 36.8182 75.2727 36.8182ZM95.7273 65.4545C95.7273 60.9359 99.3904 57.2727 103.909 57.2727C108.428 57.2727 112.091 60.9359 112.091 65.4545V114.545C112.091 119.064 108.428 122.727 103.909 122.727C99.3904 122.727 95.7273 119.064 95.7273 114.545V65.4545ZM132.545 53.1818C128.027 53.1818 124.364 56.8449 124.364 61.3636V118.636C124.364 123.155 128.027 126.818 132.545 126.818C137.064 126.818 140.727 123.155 140.727 118.636V61.3636C140.727 56.8449 137.064 53.1818 132.545 53.1818Z" fill="white"/>
</svg>
